<svg version="1.1" xmlns="http://www.w3.org/2000/svg" xmlns:xlink="http://www.w3.org/1999/xlink" width="1em" height="1em" viewBox="0,0,256,256"><g transform="translate(51.2,51.2) scale(0.6,0.6)"><g fill="#20c997" fill-rule="nonzero" stroke="none" stroke-width="1" stroke-linecap="butt" stroke-linejoin="miter" stroke-miterlimit="10" stroke-dasharray="" stroke-dashoffset="0" font-family="none" font-weight="none" font-size="none" text-anchor="none" style="mix-blend-mode: normal"><path d="M128,341.33333c-117.82075,0 -213.33333,-95.51259 -213.33333,-213.33333v0c0,-117.82075 95.51259,-213.33333 213.33333,-213.33333h0c117.82075,0 213.33333,95.51259 213.33333,213.33333v0c0,117.82075 -95.51259,213.33333 -213.33333,213.33333z" id="shape"></path></g><g fill="#ffffff" fill-rule="nonzero" stroke="none" stroke-width="1" stroke-linecap="butt" stroke-linejoin="miter" stroke-miterlimit="10" stroke-dasharray="" stroke-dashoffset="0" font-family="none" font-weight="none" font-size="none" text-anchor="none" style="mix-blend-mode: normal"><g transform="translate(0,-0.00148) scale(4,4)"><path d="M62,37.504c0,-1.877 -0.893,-3.766 -2.613,-4.768c0.391,-1.949 0.678,-4.204 0.678,-6.734c-0.001,-11.001 -7.86,-24.002 -28.065,-24.002c-20.207,0 -28.064,13.001 -28.064,24.002c0,2.529 0.287,4.783 0.678,6.732c-1.723,1.002 -2.614,2.893 -2.614,4.77c0,2.102 1.125,4.211 3.277,5.078c-2.347,4.422 -3.338,10.773 -0.886,15.254c1.061,1.939 10.699,8.119 13.9,0.342c3.66,1.736 8.209,2.828 13.709,2.828c5.5,0 10.047,-1.092 13.707,-2.828c3.203,7.777 12.84,1.598 13.902,-0.342c2.449,-4.48 1.459,-10.83 -0.889,-15.254c2.153,-0.867 3.28,-2.975 3.28,-5.078M32.01,6c14.799,0 24.668,8.001 24.668,18.002c0,0 -2.961,-15.001 -24.668,-15.001c-21.707,0 -25.656,15.001 -25.656,15.001c0,-10.001 10.855,-18.002 25.656,-18.002M55.551,41.004v1c0,7.061 -7.307,17.002 -23.551,17.002c-16.246,0 -23.553,-9.941 -23.553,-17.002v-1h-0.967c-2.449,0 -3.545,-1.758 -3.545,-3.5c0,-1.742 1.096,-3.5 3.545,-3.5h0.184l0.172,-0.07c0.092,-0.037 8.426,-3.567 8.336,-13.917c9.475,9.174 34.137,10.723 39.379,10.952v3.036h0.969c2.447,0 3.545,1.758 3.545,3.5c0,1.742 -1.098,3.5 -3.545,3.5h-0.969z"></path><circle cx="44.5" cy="36.504" r="5"></circle><circle cx="19.5" cy="36.504" r="5"></circle><path d="M40.09,48.131c-5.215,3.6 -11,3.578 -16.182,0c-0.621,-0.432 -1.184,0.314 -0.762,1.006c1.576,2.572 4.768,4.867 8.852,4.867c4.086,0 7.277,-2.295 8.854,-4.867c0.425,-0.692 -0.137,-1.438 -0.762,-1.006"></path></g></g></g></svg>